<svg xmlns="http://www.w3.org/2000/svg" viewBox="0 0 100 125" x="0px" y="0px"><path d="M34.05664,68.38623A2.34766,2.34766,0,1,0,31.709,66.03857,2.3504,2.3504,0,0,0,34.05664,68.38623Zm0-3.98633A1.63867,1.63867,0,1,1,32.418,66.03857,1.64084,1.64084,0,0,1,34.05664,64.3999Zm32.91162,3.98633a2.34766,2.34766,0,1,0-2.34717-2.34766A2.3504,2.3504,0,0,0,66.96826,68.38623Zm0-3.98633a1.63867,1.63867,0,1,1-1.63818,1.63867A1.64084,1.64084,0,0,1,66.96826,64.3999ZM19.8501,41.06055c.95557,0,1.7041-1.1123,1.7041-2.53271s-.74854-2.53271-1.7041-2.53271-1.7041,1.1123-1.7041,2.53271S18.89453,41.06055,19.8501,41.06055Zm0-4.35645c.4707,0,.99512.749.99512,1.82373s-.52441,1.82373-.99512,1.82373-.99512-.749-.99512-1.82373S19.37939,36.7041,19.8501,36.7041Zm61.20313,4.35645c.95557,0,1.7041-1.1123,1.7041-2.53271s-.74854-2.53271-1.7041-2.53271-1.7041,1.1123-1.7041,2.53271S80.09766,41.06055,81.05322,41.06055Zm0-4.35645c.4707,0,.99512.749.99512,1.82373s-.52441,1.82373-.99512,1.82373-.99512-.749-.99512-1.82373S80.58252,36.7041,81.05322,36.7041Zm7.231,20.09717V46.1626l1.06592-3.1123H87.67822V33.2959H87.665V29.22l.00537-.00079-.00537-.0351v-.07623h-.01166L85.93115,17.85107l-.65021,4.25L82.68555,8.23145H81.40771V7.11475h1.27686v-.709H81.40771V5.12891h-.709V6.40576H79.42188v.709h1.27686v1.1167H79.4209l-2.59393,13.86-.64874-4.24042-1.6333,10.6756a38.15558,38.15558,0,0,0-3.56665-2.62012,2.782,2.782,0,0,0-2.34839-4.28839,2.7964,2.7964,0,0,0-.645.07471,3.617,3.617,0,0,0-6.26068-.12933,37.92143,37.92143,0,0,0-35.37463,6.90839L24.7251,17.85059l-.6488,4.24078L21.48242,8.23145H20.20459V7.11475H21.481v-.709H20.20459V5.12891h-.709V6.40576H18.21875v.709h1.27686v1.1167H18.21777L15.62195,22.10114l-.65027-4.25055L13.24994,29.10791h-.01166v.07623l-.00537.0351.00537.00079V33.2959H13.2251v9.75439H11.55273l1.06592,3.1123V56.80127H11.28076v3.4082h1.29663a37.73635,37.73635,0,0,0,2.39087,11.04077l.061.15649a37.92477,37.92477,0,0,0,67.74988,6.13818l.09784-.15564a37.65361,37.65361,0,0,0,5.38879-17.17981h1.35681v-3.4082ZM86.96924,34.00488v9.04541H84.90332V34.00488Zm-.01318-.709h-2.063v-3.479h2.063Zm-1.29248-9.00684.02588-.00488-.01385-.07391.25555-1.67072,1.00464,6.56836H84.92651ZM82.09668,8.94043,84.9563,24.22308l-.74738,4.88483h-.02484v4.12836L81.91724,8.94043Zm-1.1958,0h.30469L83.47748,33.2959h-4.849Zm3.2832,25.12793v8.98193H77.92529V34.06836ZM80.00977,8.94043h.17944L77.91632,33.2959h-.0047V29.22015l.00586-.00092-.00586-.03827v-.07306h-.01117l-.74884-4.89447ZM76.17822,22.53955l.254,1.661-.01526.08167.02856.00537.7373,4.82031H75.17358Zm-1.03809,7.27734h2.0625v3.479h-2.0625Zm0,4.188h2.0625v9.04541h-2.0625Zm-13.2583-10.8291.09473-.40186a2.91534,2.91534,0,0,1,5.50049-.5127l.13428.30078.30957-.11182a2.08328,2.08328,0,1,1,.709,4.04248H60.83057a1.80078,1.80078,0,1,1,0-3.60156,1.77989,1.77989,0,0,1,.668.12988ZM23.7002,33.2959v-3.479h2.0625v3.479Zm2.0625.709v9.04541H23.7002V34.00488ZM24.45776,24.2876l.01331-.08685.254-1.66071,1.00415,6.56787H23.72046ZM20.89355,8.94043l2.85815,15.27289-.74884,4.89459h-.01166v.07623l-.00537.0351.00537.00079V33.2959h-.0047L20.71411,8.94043Zm-1.19629,0h.30518L22.27435,33.2959h-4.849ZM22.978,34.06836v8.98193H16.71875V34.06836ZM18.80664,8.94043h.179L16.71875,33.23627V29.10791h-.02484L15.94659,24.223ZM14.97168,22.54l.25549,1.67041.012.07855.73712,4.81891H13.96753Zm-1.02441,7.27686h2.0625v3.479h-2.0625Zm-.01318,4.188h2.06543v9.04541H13.93408Zm1.03418,35.10559a37.09568,37.09568,0,0,1-1.67963-8.901h1.67963Zm3.05811,6.97858a36.95756,36.95756,0,0,1-2.34912-4.972V60.20947h2.34912Zm0-16.58856H11.98975V57.51025h6.03662Zm0-2.69922H15.67725v-6.481a1.17456,1.17456,0,1,1,2.34912,0Zm3.05811,2.69922V80.662a37.2585,37.2585,0,0,1-2.373-3.412h.02393V57.51025h2.34912Zm0-9.18018v6.481H18.73535v-6.481a1.88354,1.88354,0,1,0-3.76709,0v6.481H13.32764V46.4585H26.484l-.01819,10.34277H24.85107v-6.481a1.8833,1.8833,0,1,0-3.7666,0Zm3.05762,0v6.44043H21.79346V50.32031a1.17432,1.17432,0,1,1,2.34863,0Zm0,33.78748q-1.23285-1.22891-2.34863-2.56952V60.20947h2.34863Zm2.34961,2.15338c-.55957-.47-1.10968-.951-1.64062-1.45276V60.20947H26.4917Zm0-26.76068H21.79346V57.51025H26.4917Zm-13.28229-13.751-.66449-1.99023H27.24854l-.6817,1.99023ZM29.58057,73.72412h-.01221v3.4082h.01221v11.459q-1.22433-.829-2.37988-1.74817V60.17578H40.83984V89.64551H38.4707V76.42334h-.03027V73.72412h-.002V71.40674h-.709v2.07965l-3.77881-2.2027-3.66113,2.13416V71.40674h-.709Zm20.87109-27.4873A30.00272,30.00272,0,0,1,73.31409,56.76807H27.58893A30.00254,30.00254,0,0,1,50.45166,46.23682Zm-4.8623-.32043V41.31689h2.37988v4.32153C47.16974,45.70233,46.37543,45.79181,45.58936,45.91638Zm3.08887-.33722V36.16992h3.56006v9.41034q-.88916-.0509-1.78662-.05243Q49.56094,45.52783,48.67822,45.57916Zm4.269.06036V41.31689h2.37988v4.60138C54.54108,45.79333,53.74677,45.7038,52.94727,45.63953ZM73.66357,57.47705V59.4668H27.21533V57.47705Zm-14.32471,2.707V89.64551H57.34912V60.18408ZM52.28693,77.71887c.00323-.04553.01337-.089.01337-.13538a1.85039,1.85039,0,1,0-3.69971,0c0,.04645.01013.09.01337.13556a3.49861,3.49861,0,0,0-1.6618,2.96942v8.957H44.248V73.37158H56.64014V89.64551H53.94873v-8.957A3.5009,3.5009,0,0,0,52.28693,77.71887ZM50.4502,79.47852a1.84029,1.84029,0,0,0,1.632-1.02161,2.77656,2.77656,0,0,1,1.15753,2.23157v8.957H47.66113v-8.957a2.77545,2.77545,0,0,1,1.15753-2.23138A1.83954,1.83954,0,0,0,50.4502,79.47852Zm-1.14062-1.895a1.14173,1.14173,0,1,1,1.14063,1.186A1.16545,1.16545,0,0,1,49.30957,77.5835Zm-5.04883-4.9209V70.67236H56.64014V72.6626Zm2.34961-2.69922V68.15186a.99512.99512,0,0,1,1.99023,0v1.81152Zm2.69922,0V66.53076a1.14087,1.14087,0,1,1,2.28174,0v3.43262Zm2.99072,0V68.15186a.99512.99512,0,1,1,1.99023,0v1.81152Zm2.69922,0V68.15186a1.70628,1.70628,0,0,0-1.7041-1.7041,1.68911,1.68911,0,0,0-.99512.32709v-.24408a1.84985,1.84985,0,1,0-3.69971,0v.24408a1.68911,1.68911,0,0,0-.99512-.32709,1.70628,1.70628,0,0,0-1.7041,1.7041v1.81152H44.248V62.74951H56.64014v7.21387ZM44.26074,62.04053V60.18408H56.64014v1.85645Zm-.72168-1.86475V89.64551H41.54883V60.17578ZM34.40186,79.42755V77.13232h3.35986V89.64551h-1.4248V81.66943A2.27321,2.27321,0,0,0,34.40186,79.42755Zm1.22607,2.24188v7.97607H32.49316V81.66943a1.56738,1.56738,0,0,1,3.13477,0Zm1.10168-7.94531H31.17175L33.95068,72.104Zm-6.45227.709h7.4541v1.99023h-7.4541Zm1.50684,7.23633v7.97607h-.42432v.08081c-.35925-.21466-.719-.42865-1.07031-.655v-11.939h3.40332v2.29791A2.27424,2.27424,0,0,0,31.78418,81.66943ZM50.4209,94.98633a37.05235,37.05235,0,0,1-17.96417-4.63184H68.379A37.0402,37.0402,0,0,1,50.4209,94.98633ZM70.64307,74.43311v1.99023H63.189V74.43311Zm-6.55969-.709L66.8623,72.104l2.7793,1.62012Zm2.52161,3.4082v2.29657a2.27366,2.27366,0,0,0-1.92187,2.24054v7.97607H63.20166V77.13232Zm1.92188,12.51318H65.39209V81.66943a1.56738,1.56738,0,0,1,3.13477,0Zm1.08081,0h-.37183V81.66943A2.27366,2.27366,0,0,0,67.314,79.42889V77.13232h3.35938V88.9375h.06989C70.37,89.18134,69.98993,89.41492,69.60767,89.64551Zm4.09448-29.436V86.788q-1.12509.90308-2.31982,1.71735v-12.082h-.03027V73.72412h-.00146V71.40674h-.709v2.07971l-3.7793-2.20276-3.66064,2.13385v-2.0108h-.709v2.31738H62.48v3.4082h.0127V89.64551H60.04785V60.17578h13.6543Zm.02637-4.04529a31.10174,31.10174,0,0,0-2.37988-2.458V48.36426h-.709v4.695q-1.13406-.98529-2.353-1.84827v-5.42h-.709v4.93555c-.765-.51245-1.54687-.99725-2.35254-1.43762v-5.2616h-.709v4.8974c-.77124-.39581-1.55426-.76819-2.35645-1.09723V42.59766h-.709v4.96057c-.773-.29492-1.556-.56519-2.35254-.79718V41.51758h-.709v5.05231q-1.16309-.30872-2.353-.52783v-7.149h-.709v1.71484H52.94727v-5.147H50.751v-1.229h1.27637v-.709H50.751V32.24609h-.709v1.27686H48.76514v.709H50.042v1.229H47.96924v5.147H45.58936V38.89307h-.709v7.14624q-1.18973.21707-2.35254.52692V41.51758h-.709v5.23889c-.79687.23157-1.57977.502-2.353.79651V42.59766h-.709v5.22357c-.80225.32855-1.58508.701-2.35645,1.09644V44.02734h-.709v5.2533c-.80579.43988-1.58734.9248-2.35254,1.43677V45.791h-.709V51.2005q-1.216.86371-2.35254,1.847V48.36426h-.709v5.32849a31.11737,31.11737,0,0,0-2.39355,2.47046V46.1626l1.06592-3.1123h-1.769V29.28668a37.20281,37.20281,0,0,1,34.9361-7.07532c-.00433.012-.011.02264-.0152.03473a2.50976,2.50976,0,1,0-.562,4.95557h7.79932a2.77285,2.77285,0,0,0,1.88977-.75,37.39381,37.39381,0,0,1,3.9115,2.89008V43.05029H72.6626l1.06592,3.1123Zm-.07373-12.40491H88.35791l-.6817,1.99023H74.31927Zm2.397,40.98267q-.79752.75732-1.64062,1.46472V60.20947h1.64063ZM79.10986,81.46q-1.11438,1.34637-2.34912,2.5824V60.20947h2.34912Zm0-21.95953H74.41113V57.51025h4.69873Zm0-2.73975H76.76074V50.32031a1.17456,1.17456,0,1,1,2.34912,0ZM82.168,59.50049V77.18555a37.27137,37.27137,0,0,1-2.34912,3.39V57.51025H82.168Zm0-9.18018v6.481H79.81885v-6.481a1.88354,1.88354,0,1,0-3.76709,0v6.481H74.4375V46.4585H87.59338L87.5752,56.80127H85.93457v-6.481a1.8833,1.8833,0,1,0-3.7666,0Zm3.05762,0v6.481H82.877v-6.481a1.17432,1.17432,0,1,1,2.34863,0Zm0,19.639H85.223v.99884a36.97963,36.97963,0,0,1-2.346,5.01678V60.20947h2.34863Zm.709-1.03094V60.20947h1.61975A37.0826,37.0826,0,0,1,85.93457,68.92834Zm2.979-9.42786H82.877V57.51025h6.03662ZM37.02148,32.6709a2.537,2.537,0,0,0-4.53467-.3667,1.961,1.961,0,0,0-.37061-.03516,1.981,1.981,0,0,0,0,3.96191h5.2041a1.79526,1.79526,0,0,0,1.79395-1.79248A1.81432,1.81432,0,0,0,37.02148,32.6709Zm.29883,2.85107h-5.2041a1.272,1.272,0,1,1,.43164-2.46777l.31055.11328.13428-.30225a1.82743,1.82743,0,0,1,3.44824.31934l.09424.39893.38135-.15088a1.10389,1.10389,0,0,1,1.48877,1.00586A1.08539,1.08539,0,0,1,37.32031,35.522Z"/><text x="0" y="115" fill="#000000" font-size="5px" font-weight="bold" font-family="'Helvetica Neue', Helvetica, Arial-Unicode, Arial, Sans-serif">Created by Befoolish</text><text x="0" y="120" fill="#000000" font-size="5px" font-weight="bold" font-family="'Helvetica Neue', Helvetica, Arial-Unicode, Arial, Sans-serif">from the Noun Project</text></svg>