<?xml version="1.0" encoding="utf-8"?>
<!-- Generator: Adobe Illustrator 22.1.0, SVG Export Plug-In . SVG Version: 6.00 Build 0)  -->
<svg version="1.1" id="Layer_1" xmlns="http://www.w3.org/2000/svg" xmlns:xlink="http://www.w3.org/1999/xlink" x="0px" y="0px"
	 viewBox="0 0 100 125" style="enable-background:new 0 0 100 125;" xml:space="preserve">
<path d="M34.1,68.4c1.3,0,2.3-1.1,2.3-2.3s-1.1-2.3-2.3-2.3s-2.3,1.1-2.3,2.3c0,0,0,0,0,0C31.7,67.3,32.8,68.4,34.1,68.4z
	 M34.1,64.4c0.9,0,1.6,0.7,1.6,1.6s-0.7,1.6-1.6,1.6c-0.9,0-1.6-0.7-1.6-1.6c0,0,0,0,0,0C32.4,65.1,33.2,64.4,34.1,64.4z M67,68.4
	c1.3,0,2.3-1.1,2.3-2.3s-1.1-2.3-2.3-2.3s-2.3,1.1-2.3,2.3c0,0,0,0,0,0C64.6,67.3,65.7,68.4,67,68.4z M67,64.4
	c0.9,0,1.6,0.7,1.6,1.6c0,0.9-0.7,1.6-1.6,1.6c-0.9,0-1.6-0.7-1.6-1.6c0,0,0,0,0,0C65.3,65.1,66.1,64.4,67,64.4z M19.9,41.1
	c1,0,1.7-1.1,1.7-2.5S20.8,36,19.9,36s-1.7,1.1-1.7,2.5S18.9,41.1,19.9,41.1z M19.9,36.7c0.5,0,1,0.7,1,1.8s-0.5,1.8-1,1.8
	s-1-0.7-1-1.8S19.4,36.7,19.9,36.7z M81.1,41.1c1,0,1.7-1.1,1.7-2.5S82,36,81.1,36s-1.7,1.1-1.7,2.5S80.1,41.1,81.1,41.1z
	 M81.1,36.7c0.5,0,1,0.7,1,1.8s-0.5,1.8-1,1.8s-1-0.7-1-1.8S80.6,36.7,81.1,36.7z M88.3,56.8V46.2l1.1-3.1h-1.7v-9.8h0v-4.1l0,0l0,0
	v-0.1h0l-1.7-11.3l-0.7,4.2L82.7,8.2h-1.3V7.1h1.3V6.4h-1.3V5.1h-0.7v1.3h-1.3v0.7h1.3v1.1h-1.3l-2.6,13.9l-0.6-4.2l-1.6,10.7
	c-1.1-0.9-2.3-1.8-3.6-2.6c0.8-1.3,0.5-3-0.8-3.8c-0.5-0.3-1-0.4-1.5-0.4c-0.2,0-0.4,0-0.6,0.1c-1-1.7-3.2-2.4-4.9-1.4
	c-0.6,0.3-1,0.8-1.3,1.3c-12.2-3.8-25.5-1.2-35.4,6.9l-1.6-10.6l-0.6,4.2L21.5,8.2h-1.3V7.1h1.3V6.4h-1.3V5.1h-0.7v1.3h-1.3v0.7h1.3
	v1.1h-1.3l-2.6,13.9L15,17.9l-1.7,11.3h0v0.1l0,0l0,0v4.1h0v9.8h-1.7l1.1,3.1v10.6h-1.3v3.4h1.3c0.2,3.8,1,7.5,2.4,11l0.1,0.2
	c7.5,19.5,29.5,29.3,49,21.8c7.8-3,14.4-8.5,18.7-15.6l0.1-0.2c3.2-5.2,5-11.1,5.4-17.2h1.4v-3.4L88.3,56.8z M87,34v9h-2.1v-9H87z
	 M87,33.3h-2.1v-3.5H87V33.3z M85.7,24.3L85.7,24.3L85.7,24.3l0.3-1.7l1,6.6h-2L85.7,24.3z M82.1,8.9L85,24.2l-0.7,4.9h0v4.1
	L81.9,8.9H82.1z M80.9,8.9h0.3l2.3,24.4h-4.8L80.9,8.9z M84.2,34.1v9h-6.3v-9H84.2z M80,8.9h0.2l-2.3,24.4h0v-4.1l0,0l0,0v-0.1h0
	l-0.7-4.9L80,8.9z M76.2,22.5l0.3,1.7l0,0.1l0,0l0.7,4.8h-2L76.2,22.5z M75.1,29.8h2.1v3.5h-2.1V29.8z M75.1,34h2.1v9h-2.1V34z
	 M61.9,23.2l0.1-0.4c0.4-1.6,1.9-2.5,3.5-2.2c0.9,0.2,1.6,0.8,2,1.7l0.1,0.3l0.3-0.1c1.1-0.4,2.3,0.2,2.7,1.3s-0.2,2.3-1.3,2.7
	c-0.2,0.1-0.5,0.1-0.7,0.1h-7.8c-1,0-1.8-0.8-1.8-1.8c0-1,0.8-1.8,1.8-1.8c0.2,0,0.5,0,0.7,0.1L61.9,23.2z M23.7,33.3v-3.5h2.1v3.5
	H23.7z M25.8,34v9h-2.1v-9L25.8,34z M24.5,24.3L24.5,24.3l0.3-1.7l1,6.6h-2L24.5,24.3z M20.9,8.9l2.9,15.3L23,29.1h0v0.1l0,0l0,0
	v4.1h0L20.7,8.9H20.9z M19.7,8.9H20l2.3,24.4h-4.8L19.7,8.9z M23,34.1v9h-6.3v-9H23z M18.8,8.9H19l-2.3,24.3v-4.1h0l-0.7-4.9
	L18.8,8.9z M15,22.5l0.3,1.7l0,0.1l0.7,4.8h-2L15,22.5z M13.9,29.8H16v3.5h-2.1V29.8z M13.9,34H16v9h-2.1L13.9,34z M15,69.1
	c-0.9-2.9-1.5-5.9-1.7-8.9H15V69.1z M18,76.1c-0.9-1.6-1.7-3.3-2.3-5V60.2H18V76.1z M18,59.5h-6v-2h6L18,59.5z M18,56.8h-2.3v-6.5
	c0-0.6,0.5-1.2,1.2-1.2s1.2,0.5,1.2,1.2c0,0,0,0,0,0L18,56.8z M21.1,59.5v21.2c-0.9-1.1-1.6-2.2-2.4-3.4h0V57.5h2.3L21.1,59.5z
	 M21.1,50.3v6.5h-2.3v-6.5c0-1-0.8-1.9-1.9-1.9S15,49.3,15,50.3v6.5h-1.6V46.5h13.2l0,10.3h-1.6v-6.5c0-1-0.8-1.9-1.9-1.9
	C21.9,48.4,21.1,49.3,21.1,50.3C21.1,50.3,21.1,50.3,21.1,50.3L21.1,50.3z M24.1,50.3v6.4h-2.3v-6.4c0-0.6,0.5-1.2,1.2-1.2
	C23.6,49.1,24.1,49.7,24.1,50.3C24.1,50.3,24.1,50.3,24.1,50.3L24.1,50.3z M24.1,84.1c-0.8-0.8-1.6-1.7-2.3-2.6V60.2h2.3V84.1z
	 M26.5,86.3c-0.6-0.5-1.1-1-1.6-1.5V60.2h1.6L26.5,86.3z M26.5,59.5h-4.7v-2h4.7L26.5,59.5z M13.2,45.7l-0.7-2h14.7l-0.7,2H13.2z
	 M29.6,73.7L29.6,73.7l0,3.4h0v11.5c-0.8-0.6-1.6-1.1-2.4-1.7V60.2h13.6v29.5h-2.4V76.4h0v-2.7h0v-2.3h-0.7v2.1L34,71.3l-3.7,2.1v-2
	h-0.7L29.6,73.7z M50.5,46.2c8.8,0,17.2,3.8,22.9,10.5H27.6C33.3,50.1,41.7,46.2,50.5,46.2z M45.6,45.9v-4.6H48v4.3
	C47.2,45.7,46.4,45.8,45.6,45.9z M48.7,45.6v-9.4h3.6v9.4c-0.6,0-1.2-0.1-1.8-0.1C49.9,45.5,49.3,45.5,48.7,45.6L48.7,45.6z
	 M52.9,45.6v-4.3h2.4v4.6C54.5,45.8,53.7,45.7,52.9,45.6L52.9,45.6z M73.7,57.5v2H27.2v-2H73.7z M59.3,60.2v29.5h-2V60.2L59.3,60.2z
	 M52.3,77.7c0,0,0-0.1,0-0.1c0-1-0.8-1.9-1.8-1.9c-1,0-1.9,0.8-1.9,1.8c0,0,0,0.1,0,0.1c0,0,0,0.1,0,0.1c-1,0.6-1.7,1.8-1.7,3v9
	h-2.7V73.4h12.4v16.3h-2.7v-9C53.9,79.5,53.3,78.4,52.3,77.7z M50.5,79.5c0.7,0,1.3-0.4,1.6-1c0.7,0.5,1.1,1.3,1.2,2.2v9h-5.6v-9
	c0-0.9,0.4-1.7,1.2-2.2C49.1,79.1,49.8,79.5,50.5,79.5z M49.3,77.6c0-0.6,0.6-1.1,1.2-1.1c0.6,0,1.1,0.6,1.1,1.2
	c0,0.6-0.5,1.1-1.1,1.1C49.8,78.8,49.3,78.2,49.3,77.6L49.3,77.6z M44.3,72.7v-2h12.4v2L44.3,72.7z M46.6,70v-1.8c0-0.5,0.4-1,1-1
	c0.5,0,1,0.4,1,1V70L46.6,70z M49.3,70v-3.4c0-0.6,0.5-1.1,1.1-1.1c0.6,0,1.1,0.5,1.1,1.1c0,0,0,0,0,0V70L49.3,70z M52.3,70v-1.8
	c0-0.5,0.4-1,1-1s1,0.4,1,1c0,0,0,0,0,0V70L52.3,70z M55,70v-1.8c0-0.9-0.8-1.7-1.7-1.7c-0.4,0-0.7,0.1-1,0.3v-0.2
	c0-1-0.8-1.8-1.8-1.8c-1,0-1.8,0.8-1.8,1.8l0,0v0.2c-0.3-0.2-0.6-0.3-1-0.3c-0.9,0-1.7,0.8-1.7,1.7V70h-1.7v-7.2h12.4V70L55,70z
	 M44.3,62v-1.9h12.4V62L44.3,62z M43.5,60.2v29.5h-2V60.2H43.5z M34.4,79.4v-2.3h3.4v12.5h-1.4v-8C36.3,80.5,35.5,79.6,34.4,79.4z
	 M35.6,81.7v8h-3.1v-8c0-0.9,0.7-1.6,1.6-1.6C34.9,80.1,35.6,80.8,35.6,81.7z M36.7,73.7h-5.6l2.8-1.6L36.7,73.7z M30.3,74.4h7.5v2
	h-7.5L30.3,74.4z M31.8,81.7v8h-0.4v0.1c-0.4-0.2-0.7-0.4-1.1-0.7V77.1h3.4v2.3C32.6,79.6,31.8,80.6,31.8,81.7L31.8,81.7z M50.4,95
	c-6.3,0-12.5-1.6-18-4.6h35.9C62.9,93.4,56.7,95,50.4,95z M70.6,74.4v2h-7.5v-2H70.6z M64.1,73.7l2.8-1.6l2.8,1.6H64.1z M66.6,77.1
	v2.3c-1.1,0.2-1.9,1.1-1.9,2.2v8h-1.5V77.1H66.6z M68.5,89.6h-3.1v-8c0-0.9,0.7-1.6,1.6-1.6c0.9,0,1.6,0.7,1.6,1.6V89.6z M69.6,89.6
	h-0.4v-8c0-1.1-0.8-2.1-1.9-2.2v-2.3h3.4v11.8h0.1C70.4,89.2,70,89.4,69.6,89.6L69.6,89.6z M73.7,60.2v26.6
	c-0.8,0.6-1.5,1.2-2.3,1.7V76.4h0v-2.7h0v-2.3h-0.7v2.1l-3.8-2.2l-3.7,2.1v-2h-0.7v2.3h0v3.4h0v12.5H60V60.2L73.7,60.2L73.7,60.2z
	 M73.7,56.2c-0.7-0.9-1.5-1.7-2.4-2.5v-5.3h-0.7v4.7c-0.8-0.7-1.5-1.3-2.4-1.8v-5.4h-0.7v4.9c-0.8-0.5-1.5-1-2.4-1.4V44h-0.7v4.9
	c-0.8-0.4-1.6-0.8-2.4-1.1v-5.2h-0.7v5c-0.8-0.3-1.6-0.6-2.4-0.8v-5.2h-0.7v5.1c-0.8-0.2-1.6-0.4-2.4-0.5v-7.1h-0.7v1.7h-2.4v-5.1
	h-2.2v-1.2H52v-0.7h-1.3v-1.3H50v1.3h-1.3v0.7H50v1.2H48v5.1h-2.4v-1.7h-0.7V46c-0.8,0.1-1.6,0.3-2.4,0.5v-5h-0.7v5.2
	c-0.8,0.2-1.6,0.5-2.4,0.8v-5h-0.7v5.2c-0.8,0.3-1.6,0.7-2.4,1.1V44h-0.7v5.3c-0.8,0.4-1.6,0.9-2.4,1.4v-4.9h-0.7v5.4
	c-0.8,0.6-1.6,1.2-2.4,1.8v-4.7h-0.7v5.3c-0.8,0.8-1.6,1.6-2.4,2.5v-10l1.1-3.1h-1.8V29.3c9.7-8.1,22.8-10.8,34.9-7.1c0,0,0,0,0,0
	c-1.4-0.3-2.7,0.5-3,1.9c-0.3,1.4,0.5,2.7,1.9,3c0.2,0,0.4,0.1,0.6,0.1h7.8c0.7,0,1.4-0.3,1.9-0.8c1.4,0.9,2.7,1.8,3.9,2.9v13.7
	h-1.8l1.1,3.1L73.7,56.2z M73.7,43.8h14.7l-0.7,2H74.3L73.7,43.8z M76.1,84.7c-0.5,0.5-1.1,1-1.6,1.5v-26h1.6L76.1,84.7z M79.1,81.5
	c-0.7,0.9-1.5,1.8-2.3,2.6V60.2h2.3V81.5z M79.1,59.5h-4.7v-2h4.7V59.5z M79.1,56.8h-2.3v-6.4c0-0.6,0.5-1.2,1.2-1.2
	s1.2,0.5,1.2,1.2l0,0V56.8z M82.2,59.5v17.7c-0.7,1.2-1.5,2.3-2.3,3.4V57.5h2.3V59.5z M82.2,50.3v6.5h-2.3v-6.5c0-1-0.8-1.9-1.9-1.9
	s-1.9,0.8-1.9,1.9v6.5h-1.6V46.5h13.2l0,10.3h-1.6v-6.5c0-1-0.8-1.9-1.9-1.9S82.2,49.3,82.2,50.3L82.2,50.3z M85.2,50.3v6.5h-2.3
	v-6.5c0-0.6,0.5-1.2,1.2-1.2C84.7,49.1,85.2,49.7,85.2,50.3C85.2,50.3,85.2,50.3,85.2,50.3L85.2,50.3z M85.2,70L85.2,70l0,1
	c-0.7,1.7-1.4,3.4-2.3,5V60.2h2.3L85.2,70z M85.9,68.9v-8.7h1.6C87.4,63.2,86.8,66.1,85.9,68.9L85.9,68.9z M88.9,59.5h-6v-2h6V59.5z
	 M37,32.7c-0.5-1.3-2-1.9-3.3-1.4c-0.5,0.2-1,0.6-1.2,1.1c-0.1,0-0.2,0-0.4,0c-1.1,0-2,0.9-2,2c0,1.1,0.9,2,2,2h5.2
	c1,0,1.8-0.8,1.8-1.8c0-1-0.8-1.8-1.8-1.8C37.2,32.7,37.1,32.7,37,32.7z M37.3,35.5h-5.2c-0.7,0-1.3-0.6-1.3-1.3
	c0-0.7,0.6-1.3,1.3-1.3c0.1,0,0.3,0,0.4,0.1l0.3,0.1l0.1-0.3c0.4-0.9,1.5-1.3,2.4-0.9c0.5,0.2,0.9,0.7,1,1.2l0.1,0.4l0.4-0.2
	c0.6-0.2,1.2,0.1,1.4,0.6c0,0.1,0.1,0.2,0.1,0.4C38.4,35,37.9,35.5,37.3,35.5L37.3,35.5z"/>
</svg>
