<svg xmlns="http://www.w3.org/2000/svg" viewBox="0 0 93.35 93.32"><defs><style>.cls-1{fill:#ff7346;}.cls-2{fill:#fff;}</style></defs><title>Asset 1</title><g id="Layer_2" data-name="Layer 2"><g id="Layer_1-2" data-name="Layer 1"><path class="cls-1" d="M93.34,80.34a13,13,0,0,1-13,13H13a13,13,0,0,1-13-13V13A13,13,0,0,1,13,0H80.36a13,13,0,0,1,13,13V80.34Z"/><path class="cls-2" d="M77.23,14.84H58.56a1.25,1.25,0,0,0-1.25,1.25V32.78h2.08a.58.58,0,0,1,.54.57.63.63,0,0,1-.12.33l-12,12.18a1.24,1.24,0,0,0,0,1.6l12,12.18a.63.63,0,0,1,.12.34.57.57,0,0,1-.54.56H57.31V77.23a1.25,1.25,0,0,0,1.25,1.25H77.23a1.25,1.25,0,0,0,1.26-1.25V16.09a1.25,1.25,0,0,0-1.26-1.25ZM33.65,33.75h0a.57.57,0,0,1,0-.8.58.58,0,0,1,.37-.17h2.06V16.09a1.25,1.25,0,0,0-1.25-1.25H16.11a1.25,1.25,0,0,0-1.25,1.25V77.23a1.25,1.25,0,0,0,1.25,1.25H34.83a1.25,1.25,0,0,0,1.25-1.25V60.54H34a.57.57,0,0,1-.37-1h0l11.9-12.12a1.26,1.26,0,0,0,0-1.58Z"/></g></g></svg>